<svg id="Ebene_1" data-name="Ebene 1" xmlns="http://www.w3.org/2000/svg" viewBox="0 0 134.62 134.6"><defs><style>.cls-1{fill:#1d1d1b;}.cls-2{fill:#fefefe;}.cls-3{fill:transparent;}.cls-4{fill:transparent;}.cls-5{fill:transparent;}.cls-6{fill:transparent;}.cls-7{fill:transparent;}.cls-8{fill:transparent;}.cls-9{fill:transparent;}.cls-10{fill:transparent;}.cls-11{fill:transparent;}.cls-12{fill:#595958;}.cls-13{fill:#575755;}.cls-14{fill:#6c6c6b;}.cls-15{fill:#5b5b59;}.cls-16{fill:#575756;}</style></defs><path class="cls-1" d="M68.57,1.23A67.3,67.3,0,1,1,1.19,68C1.35,31.27,31.55,1.22,68.57,1.23Z" transform="translate(-1.19 -1.23)"/><path class="cls-2" d="M21.59,114c1.15.52,2.38,1.38,3.54.29,1.45-1.37,2.57-3,2.07-5.18-.35-1.51-.86-3-1.35-4.45a1.87,1.87,0,0,1,.59-2c.25-.27.55-.5.93-.18a.64.64,0,0,1,.13,1c-1.53,1.35-.21,2,.63,2.85,1.45,1.39,1.43,1.37,2.36-.43a3.18,3.18,0,0,0,.05-3A8.23,8.23,0,0,0,28.39,100c-1-.91-2.2-1.85-3.63-1.12a4.42,4.42,0,0,0-2.72,4,16.94,16.94,0,0,0,1.15,4.74,2.54,2.54,0,0,1-.43,2.57c-.34.39-.68.87-1.29.4s-.45-.92-.1-1.46,1.23-1,1-1.73-.82-1.06-1.33-1.5-.73-1.51-1.57-1.39-2.05,2.72-1.9,3.78a10,10,0,0,0,1.25,3.17,54.47,54.47,0,0,1-6.63-8.94A64.66,64.66,0,0,1,2.85,64.91,65.77,65.77,0,0,1,132.48,53.13c8.48,35.67-13.4,71.42-49.16,79.42-23.61,5.29-44.29-1-61.7-17.89-.11-.11-.21-.25-.31-.37S21.33,113.94,21.59,114Z" transform="translate(-1.19 -1.23)"/><path class="cls-3" d="M21.59,114l-.28.28c-.53-.52-1.07-1-1.59-1.58-.12-.13-.32-.25-.22-.55Z" transform="translate(-1.19 -1.23)"/><path class="cls-1" d="M68.33,117.07a48.69,48.69,0,1,1,48.79-48.59A48.72,48.72,0,0,1,68.33,117.07Z" transform="translate(-1.19 -1.23)"/><path class="cls-1" d="M27.54,27.9c2.89-1.4,2.42-1.32,4.47,1,.69.76.71,1.16-.14,1.8a28.77,28.77,0,0,0-4.11,4c-.4.47-.68.47-1.1,0a19.44,19.44,0,0,0-1.78-1.61c-1.16-1-1.57.27-2.18.81-.79.69.11.89.42,1.2.73.73,2.06,1.17,2.2,2.06s-1.08,1.56-1.62,2.38c-.89,1.37-1.82,2.72-2.68,4.1-.31.51-.54.62-1.09.28-2.27-1.39-4.57-2.74-6.88-4.08-.48-.28-.71-.47-.34-1.07A56.72,56.72,0,0,1,22.86,26.13a10,10,0,0,1,3-1.95,2,2,0,0,1,2.51.35c.76.92.28,1.7-.3,2.47C27.86,27.24,27.56,27.42,27.54,27.9Z" transform="translate(-1.19 -1.23)"/><path class="cls-1" d="M38.14,117.64c-.81,1.86-1.65,3.71-2.42,5.58-.31.76-.52,1.07-1.41.51-2.54-1.62-2.57-1.57-1.22-4.29,1.62-3.24,3.25-6.47,4.84-9.73.33-.69.59-.88,1.28-.36a15.68,15.68,0,0,0,2.54,1.55c.74.36.79.81.6,1.52a41.6,41.6,0,0,0-1.14,5.28c.85-1.55,1.74-3.09,2.53-4.67.33-.68.63-.74,1.25-.4a24,24,0,0,0,2.82,1.3c.58.22.7.5.53,1.07q-2,6.51-3.89,13c-.16.56-.33.63-.89.41-3-1.15-3-1.12-2-4.14.53-1.5,1-3,1.55-4.52.11-.29,0-.65.14-.77-.06.08-.11.4-.37.56-1.11,2.06-2.24,4.11-3.33,6.19-.28.54-.52.61-1.07.33-1.82-.91-1.84-.88-1.38-2.87.39-1.71.81-3.4,1.22-5.1a4,4,0,0,1,.44-1.61C38.55,116.87,38.53,117.37,38.14,117.64Z" transform="translate(-1.19 -1.23)"/><path class="cls-1" d="M50.69,17.77a2.14,2.14,0,0,1-.87,1.45,14.44,14.44,0,0,1-3.46,2.34c-2.88,1.52-5.76,3-8.78,4.3-.62.26-1.28.4-1.93.6a1.68,1.68,0,0,1-2-.63c-1.31-1.71-2.6-3.43-3.91-5.13-.25-.33-.23-.51.1-.76a59.57,59.57,0,0,1,7-4.5c.57-.31.69.08.87.43.95,1.75,1.9,3.49,2.83,5.25.4.77.8,1.23,1.76.7s.78-1,.4-1.75C41.81,18.26,41,16.42,40,14.62c-.26-.51-.19-.71.33-1a53.75,53.75,0,0,1,7.42-2.94c.25-.08.51-.3.66.14C49.19,13.16,49.94,15.47,50.69,17.77Z" transform="translate(-1.19 -1.23)"/><path class="cls-1" d="M93.68,18a35.4,35.4,0,0,1-5.61-1.57c-.89-.27-1.95-1.06-2.64-.64s-.66,1.62-.88,2.5-.45,1-1.28.72a29.74,29.74,0,0,0-5.82-1.25c-.66-.07-.89-.32-.78-1,.42-2.68.82-5.35,1.18-8,.08-.58.38-.61.82-.54A49.55,49.55,0,0,1,93.23,12.5a10.45,10.45,0,0,1,1.7,1.09,2.49,2.49,0,0,1,0,4.06A1.63,1.63,0,0,1,93.68,18Z" transform="translate(-1.19 -1.23)"/><path class="cls-1" d="M105.26,112c1.66-.78,2.55,0,3.33,1,2.5,3.53,2.38,4.56-1,7.16-1.36,1-2.81,2-4.2,3-.5.36-.75.35-1-.25-1.91-4.06-3.86-8.11-5.82-12.15-.22-.46-.29-.75.22-1.07,1.28-.81,2.5-1.71,3.77-2.52,1.58-1,2.62-1,3.7,0C105.87,108.7,106.23,110.06,105.26,112Z" transform="translate(-1.19 -1.23)"/><path class="cls-1" d="M83.51,123.24c1.76,0,2.35,1.05,2.67,2.32a14,14,0,0,1,.62,3.15,2.24,2.24,0,0,1-1.49,2.34,33.61,33.61,0,0,1-7.06,1.68c-.77.13-.76-.36-.81-.83-.42-3.4-.83-6.8-1.25-10.2-.13-1.06-.19-2.14-.41-3.19-.16-.77.12-1,.79-1.07,1.3-.2,2.58-.48,3.88-.7a2.92,2.92,0,0,1,3.71,2.14C85,121.1,84.94,121.81,83.51,123.24Z" transform="translate(-1.19 -1.23)"/><path class="cls-1" d="M52,131.55a6.78,6.78,0,0,1-3.88-1.62,3.63,3.63,0,0,1-1.31-4c.92-3.5,1.89-7,2.81-10.49.16-.6.41-.67,1-.48,2.66.9,2.68.89,2.09,3.66s-1.2,5.44-1.76,8.17c-.13.6-.62,1.56.17,1.77,1,.25.79-.87.91-1.44q1.1-5.09,2.09-10.18c.12-.63.29-.84.9-.57a5,5,0,0,0,.69.19c2.08.53,2.08.53,1.76,2.61-.46,3.07-.91,6.15-1.39,9.22C55.73,130.53,54.56,131.55,52,131.55Z" transform="translate(-1.19 -1.23)"/><path class="cls-1" d="M109.49,26.64a11.36,11.36,0,0,1-1.19,1.25c-.35.26-.52-.21-.73-.38-1-.81-2.07-1.62-3-2.49-.69-.61-.9,0-1.14.4s-1,.68-.14,1.3c1.28.94,2.45,2,3.7,3,.75.59.16.89-.16,1.31s-.67.65-1.21.12A41.88,41.88,0,0,0,95.5,24c-.56-.29-.72-.55-.37-1.17,1.3-2.32,2.55-4.67,3.79-7,.27-.52.47-.66,1-.36a56.71,56.71,0,0,1,11.68,8.25c.58.53.37.81-.05,1.22s-.64.86-1.31.24c-1.13-1.06-2.39-2-3.57-3-.53-.46-.79-.26-1.1.23s-.73.72,0,1.23c1.1.78,2.11,1.69,3.16,2.54C109,26.3,109.22,26.45,109.49,26.64Z" transform="translate(-1.19 -1.23)"/><path class="cls-1" d="M63.69,7.45a15.28,15.28,0,0,0,2,0c1-.16,1.27.29,1.23,1.24,0,.62-.27.68-.78.7-1.36,0-2.71.17-4.06.25-.65,0-1.13.09-1,1s.47.92,1.17.83c1.18-.13,2.38-.14,3.57-.27.78-.09.79.31.82.9s-.05.93-.79.93c-1.2,0-2.39.19-3.58.23-1,0-.7.72-.7,1.27s.2.92.92.84c1.47-.14,2.94-.16,4.41-.28.76-.07.75.38.7.88s.3,1.08-.63,1.07a43.35,43.35,0,0,0-12.14,1.64c-.53.15-.69-.08-.81-.54-.68-2.66-1.36-5.31-2.1-8-.17-.62.06-.72.58-.85A61.18,61.18,0,0,1,63.69,7.45Z" transform="translate(-1.19 -1.23)"/><path class="cls-1" d="M121,34.15c-.23.19-.42.38-.64.54-1.48,1.08-2.94,2.2-4.46,3.22-.81.54-1.06.93-.34,1.79s1.28,2,2,3c.53.72,0,.88-.46,1.11s-.77.72-1.22-.07a45.34,45.34,0,0,0-7.53-9.84c-.4-.39-.45-.64,0-1,2-1.92,3.92-3.87,5.86-5.82.3-.3.49-.41.85-.05a56.48,56.48,0,0,1,5.7,6.76C120.86,33.84,120.93,34,121,34.15Z" transform="translate(-1.19 -1.23)"/><path class="cls-1" d="M110.65,105.83a5.08,5.08,0,0,1,.6-.84c.39-.38.8-1.25,1.17-1a4.86,4.86,0,0,1,1.56,1.76c.28.47-.4.68-.61,1s-1.13.79-.93,1.25a8.56,8.56,0,0,0,1.63,2.19c.27.31.47-.11.64-.28.61-.62,1.2-1.27,1.79-1.9.08,0,.12,0,.14.07,2,1.93,2,2,.13,3.9-1.18,1.25-2.45,2.4-3.65,3.62-.43.44-.64.39-1-.1q-3.72-5.49-7.49-10.93c-.26-.37-.4-.62,0-1,1.28-1.25,2.54-2.53,3.78-3.82.35-.37.56-.35.82,0a1.39,1.39,0,0,0,.15.19c1.35,1.5,1.36,1.52,0,3-.39.42-.52.72-.08,1.18S110.1,105.13,110.65,105.83Z" transform="translate(-1.19 -1.23)"/><path class="cls-1" d="M31.4,113.07c-1.38,1.59-2.76,3.18-4.13,4.79-.35.42-.59.55-1.13.17-2.06-1.48-2.08-1.45-.34-3.36,2.55-2.79,5.14-5.55,7.63-8.39.68-.77,1.13-.76,1.82-.14a14,14,0,0,0,1.92,1.42c.73.43.84.81.38,1.59-2.18,3.74-4.29,7.53-6.44,11.29-.15.28-.34.53-.51.79-2.69-1.77-2.69-1.77-1.05-4.44.7-1.16,1.4-2.31,2.11-3.46a1.56,1.56,0,0,1,.45-.87C32.05,112.64,31.72,112.85,31.4,113.07Z" transform="translate(-1.19 -1.23)"/><path class="cls-1" d="M94.88,110.86c.23-.08.29.17.37.31a7.35,7.35,0,0,1,.34.76c.7,1.54.72,1.57-.79,2.39-.56.3-.79.6-.41,1.19a1.73,1.73,0,0,1,.23.54c.25,1.25.87,1.4,1.8.61.74-.62,1.14-.35,1.37.49a2,2,0,0,0,.31.65c.54.75.27,1.15-.5,1.53-.45.22-1.32.3-1.19.92a8.54,8.54,0,0,0,1.12,2.6c.19.32.62-.12.89-.27,2-1,2-1,2.86,1,.2.47.22.72-.3,1-1.85,1.09-3.75,2.07-5.69,3-.49.22-.7.13-.86-.35q-2.28-6.52-4.57-13c-.11-.32-.29-.67.21-.88A38.35,38.35,0,0,0,94.62,111Z" transform="translate(-1.19 -1.23)"/><path class="cls-1" d="M62.81,133.29c-1.54-.2-3.08-.42-4.62-.61-.69-.09-1-.3-.93-1.12.6-4.5,1.16-9,1.71-13.52.07-.59.31-.75.86-.62a25.43,25.43,0,0,0,4.27.53c.64,0,1,.25.83.93a6,6,0,0,0,0,.6c0,1.57,0,1.62-1.6,1.48-.81-.07-1.08.19-1,1a3.77,3.77,0,0,1,0,1c-.13.7.06,1,.84,1,.48,0,1.26-.2,1.37.38a6.11,6.11,0,0,1-.12,2.48c-.09.4-.72.16-1.07.06-1.13-.31-1.51.17-1.43,1.23,0,0,0,.08,0,.12-.12,1.88-.12,2,1.72,2,1,0,1.26.34,1.18,1.32C64.6,133.37,64.67,133.37,62.81,133.29Z" transform="translate(-1.19 -1.23)"/><path class="cls-1" d="M119.36,109.05l-7.24-8.16-.23-.27c-.63-.86-2-1.5-1.87-2.48s1.21-1.61,1.79-2.47c.44-.64.7-.49,1.15,0,2.22,2.24,4.48,4.44,6.68,6.69.59.61.94.82,1.46-.07.31-.52.65-1.5,1.16-1.35.69.19,1.21,1,1.8,1.52.37.34,0,.56-.18.78A58.23,58.23,0,0,1,119.36,109.05Z" transform="translate(-1.19 -1.23)"/><path class="cls-1" d="M66.15,125.84c0-2.28,0-4.55,0-6.83,0-.73.18-.93.93-.92,2.61,0,2.62,0,2.72,2.54.12,2.91.26,5.82.3,8.73,0,.88.31,1.07,1.12,1,.46,0,1.22-.35,1.38.2a9.41,9.41,0,0,1,.19,2.61c0,.28-.37.23-.59.23-1.88,0-3.75,0-5.63.07-.63,0-.68-.29-.67-.8,0-2.28,0-4.55,0-6.82Z" transform="translate(-1.19 -1.23)"/><path class="cls-1" d="M92.94,128.21c.07.48-.3.51-.52.59-1,.38-2,.68-2.9,1.1-.57.26-.67,0-.79-.44-1.21-4.49-2.57-9-3.55-13.49-.29-1.36,1.73-1,2.56-1.62.58-.43.72.16.86.56q2.1,6.45,4.21,12.92Z" transform="translate(-1.19 -1.23)"/><path class="cls-4" d="M31.4,113.07l1.22-1.6a3.32,3.32,0,0,1-1,1.86Z" transform="translate(-1.19 -1.23)"/><path class="cls-5" d="M38.14,117.64a3.27,3.27,0,0,1,.69-1.42,3.76,3.76,0,0,1-.46,1.9C38.28,118,38.37,117.73,38.14,117.64Z" transform="translate(-1.19 -1.23)"/><path class="cls-6" d="M42.93,119.57l.64-1.4a2,2,0,0,1-.41,1.61Z" transform="translate(-1.19 -1.23)"/><path class="cls-2" d="M115.6,68.36A47.15,47.15,0,1,1,68.41,21.25,47.14,47.14,0,0,1,115.6,68.36Z" transform="translate(-1.19 -1.23)"/><path class="cls-7" d="M22.54,31.27c0,.39-1.27,2.13-1.49,2A3,3,0,0,1,19.59,32c-.11-.26,1.63-1.76,2-1.76A1.4,1.4,0,0,1,22.54,31.27Z" transform="translate(-1.19 -1.23)"/><path class="cls-8" d="M87.76,14.46c-.58-.25-1.67.06-1.77-.79-.06-.56-.13-1.83.88-1.83.73,0,1.89.13,2,1.23A1.11,1.11,0,0,1,87.76,14.46Z" transform="translate(-1.19 -1.23)"/><path class="cls-9" d="M106.08,117.57a1.13,1.13,0,0,1-.64,1c-.43.21-.46-.26-.59-.49-.46-.79-.91-1.59-1.34-2.4-.11-.21-.42-.46,0-.7s.67-.46,1-.13A9.55,9.55,0,0,1,106.08,117.57Z" transform="translate(-1.19 -1.23)"/><path class="cls-10" d="M102.28,113.29c-.29-.43-.4-.59-.5-.75-.33-.59-.66-1.18-1-1.78-.11-.19-.33-.39-.1-.63a.77.77,0,0,1,.75-.27c.59.14,1.57,2.09,1.31,2.62C102.64,112.72,102.48,113,102.28,113.29Z" transform="translate(-1.19 -1.23)"/><path class="cls-10" d="M82.48,128.06c.1.75-.12,1.19-.67,1.27-.71.11-.52-.54-.6-.9-.17-.78-.32-1.56-.42-2.34,0-.29-.32-.75.26-.86s.87,0,1,.58.2.85.29,1.28S82.45,127.87,82.48,128.06Z" transform="translate(-1.19 -1.23)"/><path class="cls-11" d="M81.28,121.67c.06.6-.08,1.13-.73,1.15s-.41-.63-.51-1a7.9,7.9,0,0,1-.25-1.52c0-.26-.3-.65.21-.78a.7.7,0,0,1,.91.53C81.06,120.59,81.16,121.14,81.28,121.67Z" transform="translate(-1.19 -1.23)"/><path class="cls-1" d="M57.51,79.81,79.82,57c.12-.15,0-.4.2-.53,1.25,1.22,2.52,2.43,3.76,3.67Q90.85,67.23,97.9,74.3a14.74,14.74,0,0,1,4.62,11.83,14.48,14.48,0,0,1-2.68,7.27c-3.17,4.56-7.29,7.77-13,8.49A13.9,13.9,0,0,1,75,97.9c-6-5.82-11.8-11.77-17.69-17.66C57.13,80,57.36,79.91,57.51,79.81Z" transform="translate(-1.19 -1.23)"/><path class="cls-12" d="M57.51,79.81l-.23.43c-.58-.54-1.17-1.07-1.73-1.63q-8.46-8.43-16.91-16.88a12.39,12.39,0,0,1-4-7.8.17.17,0,0,1,.25,0,13.38,13.38,0,0,0,3.87,7.5Q47.65,70.22,56.49,79C56.79,79.34,57,79.76,57.51,79.81Z" transform="translate(-1.19 -1.23)"/><path class="cls-13" d="M80,56.5c0,.21.07.43-.2.53.07-.49-.34-.69-.61-1Q71,47.87,62.8,39.67c-.63-.63-1.36-1.18-2-1.82a4.3,4.3,0,0,1,2,1.28q8.59,8.57,17.17,17.16A.67.67,0,0,1,80,56.5Z" transform="translate(-1.19 -1.23)"/><path class="cls-14" d="M44.06,36.89c4.92-3,12-2.81,16.18.59a15.73,15.73,0,0,0-15.92-.38A.39.39,0,0,1,44.06,36.89Z" transform="translate(-1.19 -1.23)"/><path class="cls-15" d="M34.94,53.91l-.25,0a11.9,11.9,0,0,1,.51-6.34,17.91,17.91,0,0,1,6.26-9,.2.2,0,0,1,0,.32,18.49,18.49,0,0,0-6.35,10.23A13.21,13.21,0,0,0,34.94,53.91Z" transform="translate(-1.19 -1.23)"/><path class="cls-16" d="M41.49,39l0-.32a11.15,11.15,0,0,1,2.6-1.74l.26.21Z" transform="translate(-1.19 -1.23)"/></svg>
