<?xml version="1.0" encoding="utf-8"?>
<!-- Generator: Adobe Illustrator 26.0.3, SVG Export Plug-In . SVG Version: 6.00 Build 0)  -->
<svg version="1.1" xmlns="http://www.w3.org/2000/svg" xmlns:xlink="http://www.w3.org/1999/xlink" x="0px" y="0px"
	 viewBox="0 0 1622 491" style="enable-background:new 0 0 1622 491;" xml:space="preserve">
<style type="text/css">
	.st0{stroke:#000000;stroke-width:4;stroke-miterlimit:10;}
	.st1{fill:#CCCCCC;}
</style>
<g id="a">
	<path class="st0" d="M498.8,161.2c-8.8,0-17.7-0.1-26.5,0c-9.5,0.2-18.9,0.6-28.4,1.1c-10.3,0.5-20.6,1.1-30.8,2
		c-13.2,1.1-26.4,2.5-39.6,3.7c-8.1,0.8-16.2,1.4-24.3,2.3c-8.9,1-17.7,2.3-26.6,3.5c-6.4,0.8-12.8,1.6-19.2,2.4
		c-5.2,0.7-10.5,1.4-15.7,2.2c-7.7,1.2-15.4,2.3-23.1,3.6c-14.5,2.5-29.1,4.8-43.6,7.7c-32.2,6.3-64.1,14.2-95.8,22.4
		c-22.3,5.8-44.6,11.8-66.7,18.2c-8.1,2.4-15.8,6.2-23.6,9.4c-1.2,0.5-2.4,1.2-3.5,1.9c-0.4,0.2-0.7,0.8-0.7,1.2
		c0,0.3,0.6,0.8,1,0.9c4.1,0.7,8.1,1.6,12.2,2.1c12.6,1.4,25.3,1.1,37.9,0.9c9.8-0.1,19.6-0.3,29.4-1c14.8-1.1,29.5-2,44.3-1.7
		c8.9,0.2,17.5,2.1,25.2,6.7c1.4,0.8,2.8,1.9,3.6,3.2c1.6,2.7-0.1,6-3.3,6.2c-1.6,0.1-3.4-0.3-4.7-1.1c-6.9-3.9-14.2-5.2-22.1-5
		c-8.2,0.2-16.3-0.1-24.5,0.2c-9.4,0.4-18.9,1.2-28.3,1.8c-2.5,0.1-5,0.1-7.5,0.1c-14.5,0-29,0.1-43.5,0c-7.1-0.1-14.2-1.1-21.1-3
		c-2.2-0.6-4.4-1.5-6.3-2.8c-4.8-3.3-5.4-8.7-1.3-12.8c1.9-2,4.4-3.6,6.8-5c7.7-4.4,15.9-7.6,24.3-10.3
		c27.1-8.4,54.6-15.2,82.1-22.3c26.7-6.8,53.4-13.3,80.4-18.8c13.3-2.7,26.8-4.9,40.1-7.2c9.3-1.6,18.6-3.2,27.9-4.6
		c8-1.2,16.1-2.1,24.1-3.3c6.2-0.9,12.4-1.9,18.7-2.7c6.8-0.9,13.5-1.5,20.3-2.2c8.2-0.9,16.5-1.9,24.7-2.8
		c3.8-0.4,7.6-0.8,11.4-1.1c10.3-0.8,20.5-1.6,30.8-2.3c11.3-0.7,22.5-1.4,33.8-2c9-0.4,18-0.4,26.9-1.1c14.8-1.2,29.6-0.7,44.4-0.6
		c9.1,0.1,18.2,1,27.3,1.6c4.5,0.3,8.9,0.7,13.4,1c12.3,0.8,24.4,2.9,36.5,4.9c12.6,2.1,25,5.2,37.1,9.3c5.8,2,11.5,4.3,16.5,8
		c3.1,2.3,5.6,5.1,7.3,8.7c2.4,5.2,1.3,9.7-2.3,13.8c-4.4,5.1-10.2,8.1-16.3,10.4c-8.7,3.2-17.6,5.9-26.4,8.8
		c-0.8,0.2-1.6,0.2-2.5,0.4c-0.8,0.1-1.6,0.3-2.4,0.5c0.8,0.2,1.5,0.4,2.2,0.5c8.4,0.9,16.8,2,25.2,2.7c13.9,1.2,27.6,3.8,41.1,7.2
		c8.1,2.1,15.9,5,22.7,9.9c4.3,3.1,7.2,7.1,8.6,12.4c0.9,3.4,0.2,6.3-1.4,9c-2.2,3.8-5.3,6.8-9,9.1c-8.8,5.6-18.6,8.7-28.5,11.6
		c-1.3,0.4-2.5,0.8-3.8,1.3c1.3,0.5,2.6,1.1,4,1.4c6.5,1.4,13.1,1.9,19.8,2.4c13.1,1.1,26.2,1.5,39.2,3.5c11,1.8,22,2.7,33,4.3
		c7.7,1.1,15.3,3,22.6,6c5.6,2.2,11.4,3.5,17.4,4c24.1,2,48.3,0.6,72.4,1c7.8,0.1,15.7-0.1,23.5,0.2c6.1,0.2,12.2,1.3,18.3,1.5
		c6.2,0.1,12.5,0,18.7-0.9c9.3-1.4,18.7-2.8,28.1-3.8c5.6-0.6,11.3-0.7,16.9-0.9c3.7-0.1,7.3,0.6,10.6,2.2c1.7,0.9,3,0.8,4.5-0.4
		c5.6-4.4,11.3-8.7,17-13.1c9-6.9,17.9-13.8,27-20.5c14.5-10.8,29.1-21.5,43.8-32.2c12.9-9.4,25.8-18.7,38.8-28
		c21.9-15.7,43.7-31.4,65.6-47.1c15.4-11,30.9-21.9,46.3-32.9c19.2-13.7,38.4-27.5,57.7-41.1c12.2-8.6,24.6-17.1,36.8-25.6
		c8.3-5.8,16.7-11.6,25-17.3c1.1-0.8,2.3-1.4,3.5-2c2.8-1.3,4.2-1.1,5.6,1c1.6,2.2,1.6,4.5-0.1,6.4c-0.6,0.7-1.5,1.3-2.3,1.8
		c-3.7,2.3-6.9,5.2-9.3,8.9c-1.2,1.8-2.7,2.2-4.6,2.4c-1.4,0.1-3,0.3-4.2,1.1c-12.5,8.6-24.9,17.2-37.2,25.9
		c-18.5,13-36.9,26.1-55.3,39.2c-20.2,14.3-40.4,28.6-60.6,43c-15.7,11.2-31.3,22.4-47,33.7c-21.8,15.8-43.6,31.5-65.4,47.4
		c-11.9,8.7-23.8,17.5-35.7,26.3c-10.4,7.8-20.7,15.6-31,23.5c-0.4,0.3-0.7,0.7-1.1,1c-1,0.9-0.3,1.5,0.5,1.6c3,0.3,6,0.8,8.9,0.5
		c7.4-0.7,14.8-1.6,22.2-2.8c10.8-1.7,21.6-3.6,32.4-5.4c8.8-1.5,17.6-3,26.4-4.5c7.8-1.3,15.7-2.6,23.5-3.8
		c9.2-1.4,18.4-2.8,27.5-4.2c8.2-1.3,16.4-2.6,24.6-3.8c4.3-0.6,8.6-0.8,12.9-1.3c25.4-2.9,50.9-1.5,76.3-2.1
		c8.1-0.2,16.2-1,24.3-1.7c7.1-0.6,14.2-1.3,21.3-2.1c7.2-0.9,14.4-2,21.6-3.1c1.2-0.2,2.4-1,3.6-1.7c18.8-12,37.4-24.2,56.3-36
		c18.7-11.7,37.6-23.2,56.6-34.6c13.1-7.9,26.2-15.7,39.5-23.3c14.6-8.3,29.2-16.5,44-24.4s29.8-15.5,44.9-22.9
		c7.6-3.7,15.4-7,23.9-8.5c1.3-0.2,2.6-0.4,4-0.4c3.2,0.1,5.5,2.5,5.8,5.7c0.2,2.4-0.7,4.5-1.9,6.6c-3.9,6.4-8.6,12.2-13.7,17.7
		c-11.5,12.6-24.8,23.1-38.6,33c-10.2,7.4-20.5,14.8-30.9,21.9c-13.6,9.3-28,17.2-42.8,24.5c-21.3,10.5-42.7,20.9-64.9,29.4
		c-21.7,8.3-43.9,15.2-66.8,19.4c-3.8,0.7-7.6,1.2-11.2,2.1c-2.2,0.5-4.5,1.4-6.4,2.7c-22.4,15.1-45.1,30-66.8,46.2
		c-14.3,10.7-28.2,21.7-41.4,33.6c-12,10.8-24.1,21.4-36.1,32.2c-4,3.5-7.8,7.3-11.8,10.7c-1.3,1.1-3.3,2.1-4.8,2
		c-3.6-0.3-5.2-4.6-3.1-7.7c0.5-0.7,1.1-1.2,1.7-1.8c10.6-9.6,21.1-19.3,31.9-28.8c18.5-16.2,36.9-32.6,56.8-47
		c11-8,22.2-15.8,33.3-23.6c6.4-4.5,12.9-8.8,19.3-13.2c0.3-0.2,0.4-0.7,0.6-1c-0.3,0-0.6-0.1-0.9-0.1c-8.9,0.9-17.8,2.1-26.7,2.7
		c-9.1,0.6-18.3,0.9-27.4,1.1c-18,0.4-35.9,0.4-53.9,1c-8.4,0.3-16.8,1.5-25.2,2.6c-10.2,1.3-20.4,2.8-30.5,4.3
		c-9.3,1.4-18.7,3-28,4.5c-9.5,1.5-19,2.9-28.5,4.5c-8,1.3-16,2.7-24,4c-10.5,1.7-21,3.2-31.4,5.1c-10,1.9-20.2,2.1-30.3,1.8
		c-2.3-0.1-4.6-0.3-6.9-0.7c-2.2-0.4-3.9,0.1-5.6,1.4c-6.5,5.4-13.1,10.8-19.6,16.2c-6.5,5.4-13,10.9-19.4,16.4
		c-6.7,5.7-13.5,11.3-20,17.3c-13.8,12.5-27.5,25.2-41.1,37.9c-5.9,5.4-11.7,10.9-17.4,16.5c-10.9,10.5-21.7,21.1-32.6,31.7
		c-0.6,0.6-1.2,1.2-1.9,1.6c-1.6,1-4.5,0.9-5.7-0.1c-1.6-1.5-2-4.5-0.7-6.4c0.5-0.8,1.3-1.5,2-2.2c10.3-10.2,20.5-20.5,30.9-30.6
		c11.6-11.2,23.3-22.3,35.3-33.2c13.4-12.2,27-24.2,40.7-36c13-11.2,26.2-22,39.3-33.1c0.5-0.4,1-0.9,1.5-1.3
		c-0.8-0.2-1.5-0.5-2.2-0.5c-9.5-0.2-18.9,0-28.2,1.6c-13.1,2.2-26.2,4.6-39.6,3.5c-28.9-2.3-57.9-0.5-86.9-1.2
		c-10.3-0.2-20.6-0.9-30.8-2c-4.6-0.5-9.1-1.9-13.4-3.5c-8.8-3.4-17.8-5.3-27-6.4c-8.5-1-17-2.5-25.6-3.6
		c-7.4-0.9-14.8-1.6-22.3-2.3c-11.9-1-23.9-1.1-35.7-3.2c-6.1-1-12-2.8-17.1-6.5c-2.2-1.5-4.2-1.6-6.6-1.2
		c-14.3,2.9-28.5,5.9-42.9,8.4c-8.8,1.6-17.8,2.3-26.7,3.4c-7.2,0.9-14.5,1.9-21.7,2.7c-4.3,0.5-8.6,0.8-12.9,1
		c-8.3,0.5-16.6,0.8-24.9,1.1c-10.3,0.4-20.6,0.3-30.9,1.3c-8.5,0.8-16.9,0.5-25.4,0.7c-21,0.5-41.9,0.6-62.9,1.2
		c-9,0.3-17.9-0.2-26.8-0.4c-4-0.1-8.1-1.5-12.1-2.6c-5.2-1.4-6.7-8.4-1.5-11.7c3.3-2.2,6.9-4.1,10.6-5.5c10.8-4.3,22-7.4,33.3-10
		c13.6-3.1,27.3-5.6,41.1-7.2c10-1.2,20.1-2.6,30.1-3.8c5.3-0.6,10.6-0.8,15.9-1.2c10.1-0.7,20.2-1.4,30.3-2
		c4.8-0.3,9.6-0.6,14.4-0.9c10.1-0.6,20.2-1.2,30.3-1.7c4.5-0.2,9-0.2,13.5-0.2c9.8,0,19.7-0.4,29.5,0.1c11.8,0.6,23.4,2.6,34,8.4
		c3,1.6,6,3.6,8.7,5.8c1.9,1.5,3.7,2.1,5.9,1.4c9.3-2.9,18.8-5.6,28-8.9c3.8-1.4,7.4-3.8,10.8-6.1c4.6-3.2,4.7-6.7,0.9-10.9
		c-3.3-3.7-7.7-6-12.3-7.3c-9.4-2.8-18.8-5.3-28.4-7.1c-9.6-1.8-19.3-2.8-29-4c-4.4-0.5-8.9-0.9-13.4-1.1
		c-10.8-0.5-21.6-0.8-32.4-1.2c-4.5-0.2-9-0.7-13.4-0.6c-3.8,0-7.6,0.5-11.4,1c-11,1.5-22,3.2-32.9,4.8c-11.1,1.6-22.3,3.3-33.5,4.7
		c-12,1.6-24.1,2.8-36.1,4.3c-8.9,1.1-17.7,2.5-26.6,3.7c-6.2,0.8-12.5,1.4-18.8,2.2c-6.2,0.8-12.5,1.8-18.7,2.6s-12.5,1.5-18.8,2.3
		c-9,1.2-18.1,2.4-27.1,3.6c-6.4,0.8-12.9,1.5-19.3,2.4c-5.6,0.8-11.1,1.8-16.7,2.6c-3.9,0.5-7.9,0.8-11.9,1.3
		c-10,1.3-20,2.6-30.1,3.8c-4.6,0.5-9.2,0.9-13.9,1.1c-2.4,0.1-4.4,0.8-6.5,2.2c-14.9,10.1-29,21.2-43.1,32.2
		c-2,1.5-3.9,3.1-5.8,4.7c-0.6,0.5-1.4,1-2.1,1.3c-2.2,1-4.4,0.6-5.9-1.1s-1.7-4,0-5.9c2-2.2,4.4-4,6.8-5.9
		c12.7-9.6,25.5-19.2,38.2-28.8c1.3-1,2.7-1.9,2.5-3.9c-0.3-3,1.8-4.6,4.1-5.8c2.5-1.3,5.1-2.7,7.8-3.4c9-2.4,15.9-8.1,23.3-13.2
		c10.5-7.3,20.7-15.1,32-21.1c2.5-1.3,5-1.8,7.7-1.4c3.1,0.4,5.1,2,5.2,4.4c0.2,2.6-1.9,4.7-5.1,4.8s-5.7,1.7-8.2,3.3
		c-5.1,3.2-10,6.6-15,9.9c-0.4,0.3-0.6,0.9-0.9,1.3c0.5,0,1,0.1,1.5,0c5.6-1.3,11.3-2.7,16.9-3.9c12.6-2.8,25.3-5.5,38.1-7.1
		c11.5-1.4,23-3.3,34.5-4.6c8.6-1,17.2-1.5,25.8-2.2c10.7-0.9,21.5-1.9,32.2-2.8c0.3,0,0.7,0,1-0.1c8.6-0.4,17.3-0.8,25.9-1.1
		c10.3-0.4,20.6-0.5,30.9-1.2c19.5-1.4,38.9-0.8,58.4-0.7c7.7,0,15.2-1.1,22.7-2.5c12.4-2.4,24.7-4.9,37-7.7
		c10-2.3,19.9-5.3,29.2-9.9c2.4-1.2,4.6-2.6,6.7-4.3c2.8-2.2,3.1-4.5,0.8-7.3c-1.3-1.6-3.2-3-5-4.1c-6.5-3.9-13.7-6-20.9-8.1
		c-14.5-4.1-29.4-6.9-44.3-9c-7.7-1.1-15.5-1.4-23.3-2.3C535,160.9,516.9,161.1,498.8,161.2L498.8,161.2z"/>
	<path class="st0" d="M804.6,211.1c9.8,0.3,19.6,0.5,29.4,0.9c4.2,0.1,6.3,1.9,6.1,4.9c-0.1,3-3,5.1-6.8,5
		c-9.3-0.3-18.6-0.6-27.9-0.9c-3.1-0.1-6.3-0.2-9.4-0.5c-3.2-0.3-5.2-2.2-5.2-4.9c0-2.8,1.9-4.6,5.3-4.7c2.8-0.1,5.7,0,8.5,0
		L804.6,211.1L804.6,211.1z"/>
	<path class="st1" d="M1358.4,266c-0.3-0.2-0.7-0.4-1-0.6c0.3-0.4,0.6-0.8,1-1.1c4.9-3.1,9.8-6.3,14.7-9.4
		c15.1-9.4,30.1-18.9,45.3-28.1c20.3-12.3,40.6-24.7,61.1-36.6c20.5-11.9,41.3-23.6,62.2-34.8c15.2-8.2,30.6-16.1,46.7-22.5
		c0.9-0.4,1.9-0.7,2.8-1c0.7-0.2,1.5-0.2,2.3-0.2c-0.3,0.7-0.5,1.5-0.9,2.1c-9,11.9-19.6,22.2-31.5,31c-15.2,11.3-30.5,22.4-46,33.2
		c-7.9,5.5-16.3,10.3-24.8,14.8c-13.2,7-26.6,13.5-40.1,20c-22.6,10.9-45.8,20.3-69.9,27.4c-6.2,1.8-12.4,3.5-18.7,5.2
		C1360.5,265.8,1359.5,265.9,1358.4,266L1358.4,266z"/>
	<path class="st1" d="M395.9,296.8c-6,0-12,0.1-18,0c-2.3,0-4.6-0.5-6.9-0.8c-0.5-0.1-0.9-0.3-1.3-0.5c0.4-0.2,0.9-0.5,1.3-0.6
		c6-2,11.9-4,18-5.9c15.1-4.6,30.6-7.1,46.2-9.7c9-1.5,18.1-2.4,27.2-3.3c11.7-1.2,23.5-2.1,35.2-3.1c10.1-0.8,20.2-1.3,30.3-2
		c16.2-1.2,32.5-1.9,48.8-2c6.6,0,13.3-0.9,19.9-0.6c9.9,0.4,19.9,0.7,29.5,3.8c3.9,1.3,7.7,3.2,11.5,4.8c0.3,0.1,0.5,0.4,0.8,0.5
		c-0.3,0.3-0.6,0.8-1,0.8c-5.2,1.2-10.3,2.5-15.5,3.4c-13.9,2.2-27.8,4.4-41.8,6.3c-9.5,1.3-19.1,2.2-28.7,3
		c-10.2,0.9-20.5,1.3-30.8,2.1c-17.9,1.3-35.9,1.8-53.8,2c-14.6,0.2-29.3,0.6-43.9,1c-9,0.2-17.9,0.7-26.9,1.1L395.9,296.8
		L395.9,296.8z"/>
	<path class="st1" d="M272.9,256l-1.1-0.6c0.5-0.1,0.9-0.3,1.4-0.4c7.7-2,15.4-4.2,23.1-5.8c14.6-3.1,29.2-6.2,43.9-8.8
		c9.3-1.6,18.8-2.3,28.1-3.4c7.2-0.9,14.5-1.8,21.7-2.6c4.3-0.5,8.6-0.8,12.9-1.1c6-0.4,11.9-0.7,17.9-1.2
		c7.1-0.5,14.2-1.1,21.3-1.7c0.2,0,0.3,0,0.5,0c10.3-0.4,20.6-0.8,30.9-1.2c0.6,0,1.3,0.2,1.9,0.4c-0.6,0.1-1.3,0.3-1.9,0.4
		c-10.2,1.3-20.4,2.6-30.6,3.9c-8.7,1.1-17.4,2.1-26.1,3.2c-8.9,1.2-17.7,2.5-26.6,3.7c-6.6,0.9-13.2,1.5-19.8,2.3
		c-8.2,1-16.4,2.1-24.6,3.2c-6.6,0.9-13.1,1.8-19.7,2.7c-9.2,1.2-18.4,2.5-27.6,3.7c-6.4,0.8-12.8,1.5-19.2,2.4
		C277.2,255.2,275.1,255.6,272.9,256L272.9,256z"/>
</g>
<g id="Ebene_2">
</g>
</svg>
